<?xml version="1.0" encoding="UTF-8"?>
<svg width="90px" height="91px" viewBox="0 0 90 91" version="1.1" xmlns="http://www.w3.org/2000/svg" xmlns:xlink="http://www.w3.org/1999/xlink">
    <title>Logo White&amp;Red</title>
    <defs>
        <polygon id="path-1" points="0 91 90 91 90 0 0 0"></polygon>
        <polygon id="path-3" points="0 91 90 91 90 0 0 0"></polygon>
        <polygon id="path-5" points="0 91 90 91 90 0 0 0"></polygon>
        <polygon id="path-7" points="0 91 90 91 90 0 0 0"></polygon>
        <polygon id="path-9" points="0 91 90 91 90 0 0 0"></polygon>
        <polygon id="path-11" points="0 91 90 91 90 0 0 0"></polygon>
        <polygon id="path-13" points="0 91 90 91 90 0 0 0"></polygon>
        <polygon id="path-15" points="0 91 90 91 90 0 0 0"></polygon>
    </defs>
    <g id="LP-ComingSoon" stroke="none" stroke-width="1" fill="none" fill-rule="evenodd">
        <g id="LPComingSoon-XL" transform="translate(-75.000000, -76.000000)">
            <g id="Logo-White&amp;Red" transform="translate(75.000000, 76.000000)">
                <polygon id="Fill-1" fill="#E20714" fill-rule="nonzero" points="0 83 0 83.8075923 3.04402188 83.8075923 3.04402188 91 3.94321438 91 3.94321438 83.8075923 7 83.8075923 7 83"></polygon>
                <path d="M16.1509261,83 L16.1509261,86.8205929 L11.9653439,86.8205929 L11.9653439,87.6281851 L16.1509261,87.6281851 L16.1509261,91 L17,91 L17,83 L16.1509261,83 Z M10,91 L10.8493199,91 L10.8493199,83 L10,83 L10,91 Z" id="Fill-2" fill="#FFFFFF" fill-rule="nonzero"></path>
                <path d="M19,83 L19,91 L25,91 L25,90.1921477 L19.8842968,90.1921477 L19.8842968,83.8075923 L25,83.8075923 L25,83 L19,83 Z M21.1221074,87.6281851 L24.8990693,87.6281851 L24.8990693,86.8205929 L21.1221074,86.8205929 L21.1221074,87.6281851 Z" id="Fill-3" fill="#FFFFFF" fill-rule="nonzero"></path>
                <g id="Group-21">
                    <path d="M32.0752299,85.1136185 C32.2996258,84.5979203 32.6030114,84.1496176 32.9848398,83.7681646 C33.3666682,83.3872574 33.8181935,83.084387 34.3394152,82.8600991 C34.8603637,82.6360842 35.4176638,82.5236675 36.0104955,82.5236675 C36.441795,82.5236675 36.8550553,82.5842415 37.2505497,82.7053897 C37.6457709,82.8265378 38.0095601,82.9992558 38.342191,83.2232707 C38.6745485,83.4478314 38.9732875,83.7122291 39.2384081,84.0170094 C39.5032556,84.3223355 39.7210918,84.6541287 39.8919171,85.0129346 L39.1372797,85.4969815 C39.0025327,85.2009325 38.8292477,84.9275306 38.6182445,84.67623 C38.4072412,84.4254752 38.1669927,84.205553 37.8972255,84.0170094 C37.6277317,83.8287386 37.3333657,83.6830334 37.0146742,83.5798938 C36.6954362,83.477027 36.3652652,83.4251843 36.0238882,83.4251843 C35.5658034,83.4251843 35.1298576,83.5171369 34.7168706,83.701042 C34.303337,83.8849471 33.9439207,84.1294262 33.6386219,84.4342066 C33.3330499,84.7392598 33.0903415,85.0958829 32.9107701,85.5040757 C32.7309253,85.9122686 32.6412762,86.3357414 32.6412762,86.7753128 C32.6412762,87.2238885 32.7309253,87.6476341 32.9107701,88.0468227 C33.0903415,88.4460114 33.3330499,88.7979959 33.6386219,89.1027763 C33.9439207,89.4078294 34.3011504,89.6501258 34.7100375,89.8293923 C35.1186514,90.0089317 35.5524106,90.0987014 36.0104955,90.0987014 C36.3248139,90.0987014 36.6306593,90.0558629 36.9269385,89.9707319 C37.223491,89.8856007 37.4998178,89.7669083 37.7559189,89.6141088 C38.0120201,89.461855 38.2454355,89.2801328 38.4567121,89.0692149 C38.6677154,88.8588428 38.8451003,88.623095 38.9888667,88.3627902 L39.6358159,89.0220108 C39.2586339,89.6141088 38.7576378,90.0916072 38.1333742,90.4550516 C37.5085641,90.8182232 36.8012111,90.9999454 36.0104955,90.9999454 C35.4176638,90.9999454 34.8603637,90.8878016 34.3394152,90.6635137 C33.8181935,90.4394988 33.3666682,90.1366284 32.9848398,89.7554483 C32.6030114,89.3742682 32.2996258,88.9259654 32.0752299,88.4099943 C31.8505606,87.8942961 31.738226,87.3450365 31.738226,86.7619429 C31.738226,86.1788491 31.8505606,85.6295896 32.0752299,85.1136185" id="Fill-4" fill="#E20714" fill-rule="nonzero"></path>
                    <polygon id="Fill-6" fill="#FFFFFF" fill-rule="nonzero" points="49.4069071 90.9595082 48.3557172 90.9595082 44.9594393 84.1383759 42.0349121 90.1120168 45.9969632 90.1120168 46.5766755 90.9595082 40.5524228 90.9595082 44.9594393 82.1200585"></polygon>
                    <path d="M54.8111326,86.5735357 L56.1047575,86.5735357 C56.3204073,86.5735357 56.5046252,86.5241486 56.6574112,86.4253747 C56.8099239,86.3268736 56.9381112,86.2013598 57.0414263,86.0485603 C57.1447413,85.8963065 57.2190845,85.73041 57.263909,85.5508706 C57.3087335,85.371604 57.331419,85.2010689 57.331419,85.0398109 C57.331419,84.8605444 57.3019005,84.6741836 57.2436833,84.4812743 C57.1851927,84.2886378 57.1023767,84.1134641 56.9944152,83.9565718 C56.886727,83.7996795 56.7538933,83.6695271 56.5967341,83.5663874 C56.439575,83.4635206 56.2621901,83.4116779 56.0645795,83.4116779 L51.8595467,83.4116779 L51.8595467,90.9594263 L50.9160451,90.9594263 L50.9160451,82.5641866 L56.2397778,82.5641866 C56.5180178,82.5641866 56.7831386,82.6291264 57.0348665,82.7592788 C57.2863212,82.8891583 57.5063441,83.064332 57.6952084,83.2837083 C57.8837994,83.5039033 58.0341256,83.7661181 58.1467335,84.0708985 C58.2587949,84.3759518 58.3150989,84.7033792 58.3150989,85.0531808 C58.3150989,85.3672383 58.2612547,85.6651973 58.1535665,85.9478763 C58.045605,86.2302825 57.8993786,86.4815831 57.7154341,86.7012323 C57.5312162,86.9211544 57.3155665,87.0960553 57.0684849,87.2262077 C56.8211301,87.3560872 56.5584693,87.421027 56.2799559,87.421027 L58.0726637,90.9594263 L57.0616519,90.9594263 L54.8111326,86.5735357 Z" id="Fill-8" fill="#FFFFFF" fill-rule="nonzero"></path>
                    <polygon id="Fill-10" fill="#E20714" fill-rule="nonzero" points="68.9349042 82.120195 73.3419206 90.9596446 67.317668 90.9596446 67.897107 90.1118804 71.8594314 90.1118804 68.9349042 84.1382394 65.5386262 90.9596446 64.4877097 90.9596446"></polygon>
                    <g id="Fill-12-Clipped">
                        <mask id="mask-2" fill="white">
                            <use xlink:href="#path-1"></use>
                        </mask>
                        <g id="path-1"></g>
                        <path d="M77.49341,87.421218 L81.5229711,87.421218 L81.5229711,86.5737267 L77.49341,86.5737267 L77.49341,87.421218 Z M73.6655593,86.7619975 C73.6655593,86.1789037 73.7781671,85.6293713 74.0025631,85.1136731 C74.2269591,84.5979748 74.5303446,84.1496721 74.9124464,83.7682192 C75.2940015,83.3873118 75.7455267,83.0844416 76.2667485,82.8601537 C76.787697,82.6361387 77.344997,82.523722 77.9378287,82.523722 C78.3691282,82.523722 78.7823885,82.5842961 79.1778829,82.7054442 C79.5731041,82.8265924 79.9371666,82.9993104 80.2695242,83.2233253 C80.6016084,83.4476131 80.9006207,83.7122837 81.1657414,84.017064 C81.4308621,84.3221172 81.6486984,84.6541833 81.8195236,85.0129892 L81.0646129,85.4970361 C80.9301394,85.2009871 80.7568543,84.9275851 80.545851,84.6762846 C80.3345744,84.4252569 80.0943259,84.2056076 79.8248321,84.017064 C79.5550649,83.8287932 79.260699,83.683088 78.9420075,83.5799484 C78.6230427,83.4770815 78.2928718,83.4249661 77.9514947,83.4249661 C77.4931367,83.4249661 77.0574641,83.5171915 76.6442038,83.7010966 C76.2306702,83.8850017 75.871254,84.1292079 75.5662286,84.4342612 C75.2603832,84.7393144 75.017948,85.0956646 74.8383766,85.5038574 C74.6582586,85.9123232 74.5686095,86.335796 74.5686095,86.7753674 C74.5686095,87.2239429 74.6582586,87.6476887 74.8383766,88.0468773 C75.017948,88.4460659 75.2603832,88.7980505 75.5662286,89.1028309 C75.871254,89.407884 76.2284837,89.6501804 76.6376441,89.8294469 C77.046258,90.0089862 77.4797439,90.0984831 77.9378287,90.0984831 C78.2524204,90.0984831 78.5579925,90.0559175 78.854545,89.9707864 C79.1510975,89.8856553 79.4274243,89.76669 79.6832522,89.6141634 C79.9393533,89.4616367 80.1727688,89.2799145 80.3843187,89.0692695 C80.5950486,88.8586245 80.7724335,88.6231496 80.9164733,88.3628448 L81.5634224,89.0220654 C81.1859671,89.6141634 80.6849711,90.0916617 80.0607075,90.4551061 C79.4361706,90.8182778 78.7285443,91 77.9378287,91 C77.344997,91 76.787697,90.8878562 76.2667485,90.6635683 C75.7455267,90.4392805 75.2940015,90.136683 74.9124464,89.75523 C74.5303446,89.3743228 74.2269591,88.9257471 74.0025631,88.4100489 C73.7781671,87.8943506 73.6655593,87.3448182 73.6655593,86.7619975 L73.6655593,86.7619975 Z" id="Fill-12" fill="#FFFFFF" fill-rule="nonzero" mask="url(#mask-2)"></path>
                    </g>
                    <g id="Fill-14-Clipped">
                        <mask id="mask-4" fill="white">
                            <use xlink:href="#path-3"></use>
                        </mask>
                        <g id="path-1"></g>
                        <path d="M85.8627507,87.421218 L89.8923118,87.421218 L89.8923118,86.5737267 L85.8627507,86.5737267 L85.8627507,87.421218 Z M83.598292,90.9596173 L83.598292,82.5641047 L90,82.5641047 L90,83.4115961 L84.5417937,83.4115961 L84.5417937,90.1118531 L90,90.1118531 L90,90.9596173 L83.598292,90.9596173 Z" id="Fill-14" fill="#FFFFFF" fill-rule="nonzero" mask="url(#mask-4)"></path>
                    </g>
                    <g id="Fill-15-Clipped">
                        <mask id="mask-6" fill="white">
                            <use xlink:href="#path-5"></use>
                        </mask>
                        <g id="path-1"></g>
                        <path d="M47.592771,42.1231316 C47.592771,41.1089251 46.9802602,40.2385138 46.1048153,39.8578794 L45.1178557,25.7149238 L44.1308961,39.8578794 C43.2554512,40.2385138 42.6429404,41.1089251 42.6429404,42.1231316 C42.6429404,43.4876855 43.7509809,44.5938445 45.1178557,44.5938445 C46.4847305,44.5938445 47.592771,43.4876855 47.592771,42.1231316" id="Fill-15" fill="#FFFFFF" fill-rule="nonzero" mask="url(#mask-6)"></path>
                    </g>
                    <g id="Fill-16-Clipped">
                        <mask id="mask-8" fill="white">
                            <use xlink:href="#path-7"></use>
                        </mask>
                        <g id="path-1"></g>
                        <polygon id="Fill-16" fill="#FFFFFF" fill-rule="nonzero" mask="url(#mask-8)" points="36.9660232 48.8780962 53.3548548 48.8780962 53.3548548 46.1634498 36.9660232 46.1634498"></polygon>
                    </g>
                    <g id="Fill-17-Clipped">
                        <mask id="mask-10" fill="white">
                            <use xlink:href="#path-9"></use>
                        </mask>
                        <g id="path-1"></g>
                        <path d="M51.2356385,8.92872816 C52.2791754,9.14401171 53.3101395,9.41986933 54.3274377,9.75902959 C57.1008188,10.6867407 59.6615566,11.9961776 62.0055515,13.6884318 C64.3503663,15.3804131 66.4407198,17.3569835 68.2771589,19.6118672 C70.112778,21.8686608 71.6182263,24.3262766 72.7907703,26.9866247 L80.7605167,26.9866247 C80.7605167,26.9866247 80.3827881,23.7985728 73.3969947,13.6884318 C71.7543398,11.3107628 69.7446156,9.43760498 67.5104955,7.74316796 L79.3561971,7.74316796 L79.3561971,5.45712409e-05 L10.6117698,5.45712409e-05 L10.6117698,7.74316796 L23.4725829,7.74316796 C21.9805274,8.87142836 20.5805809,10.1066484 19.2757498,11.4521024 C15.952995,14.8786306 13.3151808,18.9073524 11.3623073,23.5412693 C9.40834052,28.1760048 8.43149379,33.1117008 8.43149379,38.3494484 C8.43149379,43.5901976 9.40834052,48.5250749 11.3623073,53.1587189 C12.046428,54.7827591 12.0368618,54.7655692 12.8890745,56.2406298 L17.3841,47.2142737 C15.8196147,43.629216 16.2858991,42.5023199 16.2858991,38.4705966 C16.2858991,34.5234587 17.0662286,30.7152046 18.6309873,27.0463802 C20.1927394,23.3797384 22.3030454,20.1766795 24.9608119,17.4355661 C27.6169386,14.6966355 30.7442694,12.4998702 34.3397979,10.8471801 C35.9307954,10.1161984 37.5603309,9.54756603 39.2284047,9.13991887 L39.2284047,11.8608409 L15.1365872,60.1828563 L20.8713937,67.0883011 L45.1416893,17.5114201 L66.4336136,59.5198157 C64.7119689,61.2284413 62.8279722,62.7165989 60.7747901,63.9788317 C58.5472297,65.3502071 56.1439244,66.4176205 53.5651475,67.1821636 C50.9866437,67.9494353 48.3286039,68.3311611 45.5934877,68.3311611 C41.6076578,68.3311611 37.8363844,67.5265081 34.2807606,65.9131094 C31.8290776,64.8020389 29.591951,63.4219322 27.5680143,61.7746994 L24.0378093,69.3745632 C26.6455582,71.5167572 27.8380547,71.9787028 31.0569478,73.4087422 C35.5885983,75.4235124 40.4351138,76.4308975 45.5934877,76.4308975 C52.4699529,76.4308975 58.6245794,74.7986717 64.0576402,71.5344929 C68.7478165,68.7156155 73.2671675,65.4899094 76.3551402,61.1386716 L51.2356385,11.9361492 L51.2356385,8.92872816 Z" id="Fill-17" fill="#FFFFFF" fill-rule="nonzero" mask="url(#mask-10)"></path>
                    </g>
                    <g id="Fill-18-Clipped">
                        <mask id="mask-12" fill="white">
                            <use xlink:href="#path-11"></use>
                        </mask>
                        <g id="path-1"></g>
                        <path d="M27.4916212,61.7142617 C27.5167667,61.7347259 27.5427321,61.7540987 27.5678776,61.7745629 L27.5848234,61.7382731 C27.3571477,61.5865649 27.0895671,61.3849243 27.4916212,61.7142617" id="Fill-18" fill="#1D1D1B" fill-rule="nonzero" mask="url(#mask-12)"></path>
                    </g>
                    <g id="Fill-19-Clipped">
                        <mask id="mask-14" fill="white">
                            <use xlink:href="#path-13"></use>
                        </mask>
                        <g id="path-1"></g>
                        <path d="M27.6284727,61.6442741 L27.5847414,61.7381366 C27.7812588,61.8691075 27.9479841,61.9626973 27.6284727,61.6442741" id="Fill-19" fill="#1D1D1B" fill-rule="nonzero" mask="url(#mask-14)"></path>
                    </g>
                    <g id="Fill-20-Clipped">
                        <mask id="mask-16" fill="white">
                            <use xlink:href="#path-15"></use>
                        </mask>
                        <g id="path-1"></g>
                        <path d="M80.700031,49.3992243 L77.6965142,56.8861257 L74.3415077,50.5190262 L74.5719167,49.3992243 L80.700031,49.3992243 Z M81.0572606,47.7991955 L74.8881482,47.8144755 C75.0614333,46.9680755 75.2768097,46.0581 75.3943374,45.0444393 L81.7944054,45.0444393 C81.712956,45.9844289 81.0572606,47.7991955 81.0572606,47.7991955 L81.0572606,47.7991955 Z M82.0879514,43.481519 L75.6343127,43.5025288 C75.6955364,42.5115152 75.8671815,40.8023439 75.933325,39.7316562 L82.6966357,39.7316562 C82.6280323,40.9458662 82.0879514,43.481519 82.0879514,43.481519 L82.0879514,43.481519 Z M75.7589467,38.1864714 C75.4924593,34.3834017 75.0939584,32.3926428 73.9003687,29.3909517 L81.5825822,29.5175569 C82.5173376,31.7522493 82.9256782,34.9392098 82.7373605,38.1684629 L75.7589467,38.1864714 Z" id="Fill-20" fill="#E20714" fill-rule="nonzero" mask="url(#mask-16)"></path>
                    </g>
                </g>
            </g>
        </g>
    </g>
</svg>